<?xml version="1.0" standalone="no"?>
<!DOCTYPE svg PUBLIC "-//W3C//DTD SVG 20010904//EN"
 "http://www.w3.org/TR/2001/REC-SVG-20010904/DTD/svg10.dtd">
<svg version="1.0" xmlns="http://www.w3.org/2000/svg"
 width="261.000000pt" height="261.000000pt" viewBox="0 0 261.000000 261.000000"
 preserveAspectRatio="xMidYMid meet">
<metadata>
Created by potrace 1.14, written by Peter Selinger 2001-2017
</metadata>
<g transform="translate(0.000000,261.000000) scale(0.100000,-0.100000)"
fill="#000000" stroke="none">
<path d="M1268 2573 c12 -2 32 -2 45 0 12 2 2 4 -23 4 -25 0 -35 -2 -22 -4z"/>
<path d="M1395 2540 c3 -5 11 -10 16 -10 6 0 7 5 4 10 -3 6 -11 10 -16 10 -6
0 -7 -4 -4 -10z"/>
<path d="M1440 2501 c0 -5 5 -13 10 -16 6 -3 10 -2 10 4 0 5 -4 13 -10 16 -5
3 -10 2 -10 -4z"/>
<path d="M1263 2493 c15 -2 37 -2 50 0 12 2 0 4 -28 4 -27 0 -38 -2 -22 -4z"/>
<path d="M1365 2460 c16 -16 31 -28 33 -25 7 7 -39 55 -52 55 -5 0 3 -13 19
-30z"/>
<path d="M1091 2434 c0 -11 3 -14 6 -6 3 7 2 16 -1 19 -3 4 -6 -2 -5 -13z"/>
<path d="M1482 2400 c0 -14 2 -19 5 -12 2 6 2 18 0 25 -3 6 -5 1 -5 -13z"/>
<path d="M1482 2350 c0 -14 2 -19 5 -12 2 6 2 18 0 25 -3 6 -5 1 -5 -13z"/>
<path d="M1091 2314 c0 -11 3 -14 6 -6 3 7 2 16 -1 19 -3 4 -6 -2 -5 -13z"/>
<path d="M1467 2297 c-4 -12 1 -26 15 -40 11 -12 18 -16 13 -9 -4 8 -10 25
-14 40 -6 22 -8 23 -14 9z"/>
<path d="M1100 2281 c0 -5 -3 -18 -7 -28 -6 -15 -4 -16 9 -6 8 7 18 9 23 5 4
-4 2 3 -4 16 -12 23 -21 29 -21 13z"/>
<path d="M1360 2279 c0 -5 5 -7 10 -4 6 3 10 8 10 11 0 2 -4 4 -10 4 -5 0 -10
-5 -10 -11z"/>
<path d="M1265 2250 c-4 -6 5 -10 20 -10 15 0 24 4 20 10 -3 6 -12 10 -20 10
-8 0 -17 -4 -20 -10z"/>
<path d="M1500 2223 c0 -5 9 -21 20 -38 24 -36 26 -26 5 15 -15 29 -25 38 -25
23z"/>
<path d="M1292 2163 c3 -16 -12 -19 -122 -28 -69 -6 -126 -10 -128 -9 -2 1 1
13 8 26 11 22 10 22 -4 4 -9 -11 -16 -23 -16 -26 0 -3 -30 -15 -66 -25 -47
-13 -80 -31 -113 -60 -25 -23 -55 -48 -67 -56 -28 -18 -124 -144 -124 -162 0
-7 -4 -17 -9 -22 -4 -6 -11 -22 -15 -37 -5 -23 -3 -28 13 -28 11 0 22 4 25 9
4 5 24 12 46 16 22 4 42 11 45 15 3 5 27 12 53 16 26 3 64 15 85 25 21 10 60
21 85 25 26 3 52 10 57 14 14 10 95 20 95 11 0 -4 -5 -12 -12 -19 -9 -9 -9
-12 -1 -12 7 0 14 9 18 19 3 10 13 22 23 25 41 15 102 64 102 82 0 6 9 19 19
28 24 22 35 7 26 -33 -8 -37 8 -48 41 -26 20 13 29 14 39 5 28 -23 28 -50 0
-86 l-27 -35 57 -60 c31 -34 59 -74 62 -90 3 -16 9 -29 14 -29 5 0 9 -11 9
-24 0 -13 9 -35 20 -49 11 -14 20 -28 20 -32 0 -4 11 -18 25 -31 14 -13 25
-25 25 -28 0 -9 71 -101 81 -104 5 -2 11 -19 15 -38 3 -19 10 -37 15 -40 15
-9 10 -101 -7 -131 -21 -36 -82 -65 -140 -65 -43 -1 -49 2 -117 69 -79 77
-140 113 -191 113 -35 0 -92 23 -156 61 -47 29 -101 28 -137 -2 -49 -40 -148
-159 -151 -180 -2 -14 9 -35 31 -58 39 -41 67 -98 67 -134 0 -24 -4 -26 -47
-30 -27 -2 213 -4 532 -4 319 0 573 1 563 4 -12 3 -18 20 -23 63 -9 78 8 107
34 58 11 -22 11 -22 6 -1 -3 12 -8 30 -10 42 -2 11 -9 29 -15 41 -6 11 -8 29
-5 40 3 11 -1 35 -10 54 -28 58 -1 77 34 24 11 -18 21 -28 21 -23 0 6 -4 15
-9 20 -5 6 -12 20 -15 32 -5 17 0 25 24 39 38 23 40 58 5 90 -14 13 -25 27
-25 32 0 5 -9 17 -20 27 -11 10 -20 24 -20 32 0 7 -4 13 -9 13 -20 0 -43 68
-48 140 -3 41 -9 80 -13 85 -4 6 -10 27 -14 47 -4 20 -13 50 -21 65 -8 15 -15
34 -15 41 0 6 -4 12 -10 12 -5 0 -10 5 -10 12 0 7 -15 27 -32 45 -28 28 -31
36 -21 52 27 43 -32 93 -127 107 -25 4 -50 11 -57 16 -6 5 -13 5 -15 0 -1 -5
-54 -7 -116 -4 -105 4 -113 6 -109 23 3 12 0 19 -9 19 -9 0 -14 -8 -12 -17z
m146 -195 c-2 -17 -8 -33 -15 -35 -17 -6 -27 35 -13 52 20 24 31 17 28 -17z"/>
<path d="M1092 1789 c-12 -21 -21 -39 -18 -39 7 0 49 71 44 75 -2 2 -14 -14
-26 -36z"/>
<path d="M841 1733 c-10 -26 -10 -27 4 -9 8 11 15 23 15 28 0 15 -7 8 -19 -19z"/>
<path d="M1046 1713 c-6 -14 -5 -15 5 -6 7 7 10 15 7 18 -3 3 -9 -2 -12 -12z"/>
<path d="M985 1690 c-3 -5 1 -10 9 -10 9 0 16 5 16 10 0 6 -4 10 -9 10 -6 0
-13 -4 -16 -10z"/>
<path d="M926 1643 c-19 -21 -33 -39 -30 -42 2 -2 5 -2 7 0 1 2 18 21 36 42
19 20 32 37 29 37 -4 0 -23 -17 -42 -37z"/>
<path d="M860 1560 c-6 -11 -8 -20 -6 -20 3 0 10 9 16 20 6 11 8 20 6 20 -3 0
-10 -9 -16 -20z"/>
<path d="M745 1540 c-8 -16 -15 -32 -15 -37 0 -10 25 27 33 50 10 27 -1 20
-18 -13z"/>
<path d="M817 1483 l-18 -38 20 25 c18 22 28 50 18 50 -2 0 -11 -17 -20 -37z"/>
<path d="M675 1389 c-4 -6 -5 -12 -2 -15 2 -3 7 2 10 11 7 17 1 20 -8 4z"/>
<path d="M601 1243 c-6 -15 -17 -43 -25 -60 -8 -18 -13 -33 -10 -33 7 0 56
111 51 116 -3 3 -10 -8 -16 -23z"/>
<path d="M677 1203 c-22 -50 -16 -52 12 -3 12 22 18 40 14 40 -5 0 -16 -17
-26 -37z"/>
<path d="M545 940 c-4 -6 7 -10 27 -9 27 0 30 2 13 9 -27 12 -33 12 -40 0z"/>
<path d="M2015 940 c-3 -5 3 -10 15 -10 12 0 18 5 15 10 -3 6 -10 10 -15 10
-5 0 -12 -4 -15 -10z"/>
<path d="M306 931 c-4 -5 3 -7 14 -4 23 6 26 13 6 13 -8 0 -17 -4 -20 -9z"/>
<path d="M623 933 c9 -2 25 -2 35 0 9 3 1 5 -18 5 -19 0 -27 -2 -17 -5z"/>
<path d="M763 933 c9 -2 23 -2 30 0 6 3 -1 5 -18 5 -16 0 -22 -2 -12 -5z"/>
<path d="M1181 688 c-1 -16 -12 -18 -93 -18 -94 0 -115 -16 -29 -22 42 -3 45
-5 58 -44 10 -28 34 -58 83 -102 56 -51 75 -62 104 -62 41 0 86 18 86 35 0 7
20 51 45 99 25 49 45 90 45 92 0 2 -65 4 -144 4 -129 0 -145 2 -149 18 -4 16
-5 16 -6 0z"/>
<path d="M393 633 c-12 -13 -19 -23 -14 -23 10 0 46 39 40 43 -2 2 -14 -7 -26
-20z"/>
<path d="M2264 598 c-5 -17 0 -28 21 -45 36 -31 42 -23 20 27 -20 45 -31 50
-41 18z"/>
<path d="M284 578 c-23 -44 -12 -54 24 -23 37 31 40 41 12 48 -15 4 -24 -2
-36 -25z"/>
</g>
</svg>
